<svg width="18" height="11" viewBox="0 0 18 11" fill="none" xmlns="http://www.w3.org/2000/svg">
<path fill-rule="evenodd" clip-rule="evenodd" d="M17.5869 0.744634C17.7119 0.315634 17.5869 -0.000366211 16.9919 -0.000366211H15.0229C14.5219 -0.000366211 14.2909 0.272634 14.1659 0.573634C14.1659 0.573634 13.1639 3.08463 11.7459 4.71663C11.2869 5.18863 11.0779 5.33863 10.8279 5.33863C10.7019 5.33863 10.5209 5.18863 10.5209 4.75963V0.744634C10.5209 0.229634 10.3759 -0.000366211 9.95888 -0.000366211H6.86388C6.55088 -0.000366211 6.36288 0.239634 6.36288 0.465634C6.36288 0.953634 7.07188 1.06663 7.14588 2.44063V5.42463C7.14588 6.07863 7.03088 6.19763 6.77988 6.19763C6.11288 6.19763 4.48888 3.67463 3.52588 0.787634C3.33688 0.226634 3.14788 -0.000366211 2.64488 -0.000366211H0.674878C0.111878 -0.000366211 -0.00012207 0.272634 -0.00012207 0.573634C-0.00012207 1.10963 0.667878 3.77163 3.10788 7.29263C4.73588 9.69663 7.02788 10.9996 9.11488 10.9996C10.3659 10.9996 10.5209 10.7106 10.5209 10.2116V8.39463C10.5209 7.81563 10.6399 7.70063 11.0359 7.70063C11.3279 7.70063 11.8289 7.85063 12.9969 9.00963C14.3329 10.3836 14.5529 10.9996 15.3039 10.9996H17.2729C17.8359 10.9996 18.1169 10.7106 17.9549 10.1396C17.7769 9.56963 17.1389 8.74363 16.2939 7.76463C15.8349 7.20663 15.1459 6.60563 14.9379 6.30463C14.6459 5.91863 14.7289 5.74663 14.9379 5.40363C14.9379 5.40363 17.3369 1.92563 17.5869 0.744634Z" fill="white"/>
</svg>
